<?xml version="1.0" encoding="UTF-8"?>
<svg class="gradient" fill="none" version="1.1" viewBox="0 0 58 29" xmlns="http://www.w3.org/2000/svg">
<path d="m0 14.5c7.0009e-7 -8.0081 6.4919-14.5 14.5-14.5 4.3417 3.7957e-7 8.2378 1.9082 10.895 4.9318 4.8216 5.4132 8.8086 5.1284 13.043 1.1322 2.0775-1.9615 4.8794-3.164 7.9621-3.164 6.4065 1e-5 11.6 5.1935 11.6 11.6 0 6.4065-5.1935 11.6-11.6 11.6-3.0827 0-5.8846-1.2025-7.9621-3.164-4.2331-3.9953-8.2192-4.281-13.039 1.1282-2.6575 3.0259-6.5551 4.9358-10.899 4.9358-8.0081 0-14.5-6.4919-14.5-14.5z" fill="#f2f5fa"/>
<path d="m0 14.5c7.0009e-7 -8.0081 6.4919-14.5 14.5-14.5 4.3417 3.7957e-7 8.2378 1.9082 10.895 4.9318 4.8216 5.4132 8.8086 5.1284 13.043 1.1322 2.0775-1.9615 4.8794-3.164 7.9621-3.164 6.4065 1e-5 11.6 5.1935 11.6 11.6 0 6.4065-5.1935 11.6-11.6 11.6-3.0827 0-5.8846-1.2025-7.9621-3.164-4.2331-3.9953-8.2192-4.281-13.039 1.1282-2.6575 3.0259-6.5551 4.9358-10.899 4.9358-8.0081 0-14.5-6.4919-14.5-14.5z" fill="url(#e)"/>
<path d="m0 14.5c7.0009e-7 -8.0081 6.4919-14.5 14.5-14.5 4.3417 3.7957e-7 8.2378 1.9082 10.895 4.9318 4.8216 5.4132 8.8086 5.1284 13.043 1.1322 2.0775-1.9615 4.8794-3.164 7.9621-3.164 6.4065 1e-5 11.6 5.1935 11.6 11.6 0 6.4065-5.1935 11.6-11.6 11.6-3.0827 0-5.8846-1.2025-7.9621-3.164-4.2331-3.9953-8.2192-4.281-13.039 1.1282-2.6575 3.0259-6.5551 4.9358-10.899 4.9358-8.0081 0-14.5-6.4919-14.5-14.5z" fill="url(#d)"/>
<path d="m0 14.5c7.0009e-7 -8.0081 6.4919-14.5 14.5-14.5 4.3417 3.7957e-7 8.2378 1.9082 10.895 4.9318 4.8216 5.4132 8.8086 5.1284 13.043 1.1322 2.0775-1.9615 4.8794-3.164 7.9621-3.164 6.4065 1e-5 11.6 5.1935 11.6 11.6 0 6.4065-5.1935 11.6-11.6 11.6-3.0827 0-5.8846-1.2025-7.9621-3.164-4.2331-3.9953-8.2192-4.281-13.039 1.1282-2.6575 3.0259-6.5551 4.9358-10.899 4.9358-8.0081 0-14.5-6.4919-14.5-14.5z" fill="url(#c)"/>
<path d="m0 14.5c7.0009e-7 -8.0081 6.4919-14.5 14.5-14.5 4.3417 3.7957e-7 8.2378 1.9082 10.895 4.9318 4.8216 5.4132 8.8086 5.1284 13.043 1.1322 2.0775-1.9615 4.8794-3.164 7.9621-3.164 6.4065 1e-5 11.6 5.1935 11.6 11.6 0 6.4065-5.1935 11.6-11.6 11.6-3.0827 0-5.8846-1.2025-7.9621-3.164-4.2331-3.9953-8.2192-4.281-13.039 1.1282-2.6575 3.0259-6.5551 4.9358-10.899 4.9358-8.0081 0-14.5-6.4919-14.5-14.5z" fill="url(#b)"/>
<path d="m0 14.5c7.0009e-7 -8.0081 6.4919-14.5 14.5-14.5 4.3417 3.7957e-7 8.2378 1.9082 10.895 4.9318 4.8216 5.4132 8.8086 5.1284 13.043 1.1322 2.0775-1.9615 4.8794-3.164 7.9621-3.164 6.4065 1e-5 11.6 5.1935 11.6 11.6 0 6.4065-5.1935 11.6-11.6 11.6-3.0827 0-5.8846-1.2025-7.9621-3.164-4.2331-3.9953-8.2192-4.281-13.039 1.1282-2.6575 3.0259-6.5551 4.9358-10.899 4.9358-8.0081 0-14.5-6.4919-14.5-14.5z" fill="url(#a)"/>
<defs>
<linearGradient id="e" x1="43.696" x2="10.304" y1="21.707" y2="-4.2433" gradientTransform="translate(6.3972e-7)" gradientUnits="userSpaceOnUse">
<stop class="ccustom" stop-color="#FF557E" offset="0"/>
<stop class="ccompli1" stop-color="#f55" stop-opacity="0" offset=".84105"/>
</linearGradient>
<linearGradient id="d" x1="14.502" x2="23.424" y1="27.055" y2="-3.85" gradientTransform="translate(6.3972e-7)" gradientUnits="userSpaceOnUse">
<stop class="ccompli1" stop-color="#58CCDC" offset="0"/>
<stop class="ccompli1" stop-color="#58CCDC" stop-opacity="0" offset="1"/>
</linearGradient>
<radialGradient id="c" cx="0" cy="0" r="1" gradientTransform="matrix(-20.14 -31.099 25.465 -16.492 45.488 35.041)" gradientUnits="userSpaceOnUse">
<stop class="ccompli2" stop-color="#8263DB" offset="0"/>
<stop stop-color="#8172DA" stop-opacity=".26" offset=".56873"/>
<stop class="ccompli2" stop-color="#8172DA" stop-opacity="0" offset="1"/>
</radialGradient>
<radialGradient id="b" cx="0" cy="0" r="1" gradientTransform="matrix(5.3274 24.381 -38.322 8.3735 18.302 -4.195)" gradientUnits="userSpaceOnUse">
<stop class="ccompli1" stop-color="#41D1B7" offset="0"/>
<stop class="ccompli1" stop-color="#41D1B7" stop-opacity=".35" offset=".4927"/>
<stop class="ccompli1" stop-color="#41D1B7" stop-opacity="0" offset="1"/>
</radialGradient>
<radialGradient id="a" cx="0" cy="0" r="1" gradientTransform="matrix(-15.595 22.178 -46.976 -33.031 59.645 -10.745)" gradientUnits="userSpaceOnUse">
<stop class="ccompli2" stop-color="#FFEC45" offset="0"/>
<stop class="ccompli2" stop-color="#FFEC45" stop-opacity=".3" offset=".54919"/>
<stop class="ccompli2" stop-color="#FFEC45" stop-opacity="0" offset=".96114"/>
</radialGradient>
</defs>
</svg>
